<?xml version="1.0" encoding="iso-8859-1"?>
<!-- Uploaded to: SVG Repo, www.svgrepo.com, Generator: SVG Repo Mixer Tools -->
<svg fill=" #f9eede" version="1.1" id="Layer_1" xmlns="http://www.w3.org/2000/svg" xmlns:xlink="http://www.w3.org/1999/xlink" 
	 viewBox="0 0 512 512" xml:space="preserve">
<g>
	<g>
		<g>
			<path d="M415.633,249.967l-6.033-6.033v-56.201h-93.867v47.667l-8.533,8.533l-8.533-8.533v-47.667h-85.333v47.667l-8.533,8.533
				l-8.533-8.533v-47.667H102.4v56.201l-6.033,6.033c-1.604,1.596-2.5,3.763-2.5,6.033v230.4c0,14.114,11.486,25.6,25.6,25.6
				h273.067c14.114,0,25.6-11.486,25.6-25.6V256C418.133,253.73,417.237,251.563,415.633,249.967z M401.067,486.4
				c0,4.71-3.823,8.533-8.533,8.533H119.467c-4.71,0-8.533-3.823-8.533-8.533V259.533l6.033-6.033L128,242.466l19.567,19.567
				c3.336,3.337,8.73,3.337,12.066,0l19.567-19.567l19.558,19.558l0.009,0.009c3.336,3.337,8.73,3.337,12.066,0l0.009-0.009
				l19.558-19.558l19.567,19.567c3.337,3.337,8.73,3.337,12.066,0l19.567-19.567l19.558,19.558l0.008,0.009
				c3.337,3.337,8.73,3.337,12.066,0l0.009-0.009l19.558-19.558l19.567,19.567c1.664,1.664,3.849,2.5,6.033,2.5
				s4.369-0.836,6.033-2.5L384,242.466l11.034,11.034l6.033,6.033V486.4z"/>
			<path d="M294.484,307.2c-17.22,0-30.191,8.781-38.502,19.251c-8.311-10.47-21.291-19.251-38.502-19.251
				c-19.456,0-35.456,10.487-42.786,28.049c-8.533,20.412-3.115,45.389,13.457,62.174c8.277,8.397,58.931,58.53,62.507,61.448
				c1.579,1.289,3.49,1.929,5.402,1.929c2.15,0,4.292-0.811,5.939-2.406c0.512-0.503,51.456-49.98,61.943-61.099
				c16.819-17.8,22.007-42.453,13.244-62.797C329.82,317.406,313.854,307.2,294.484,307.2z"/>
			<path d="M298.667,51.133c-5.487-13.124-8.533-27.511-8.533-42.598c0-4.719-3.814-8.533-8.533-8.533h-68.267v68.267h85.333V51.133
				z"/>
			<path d="M196.267,0H128c-14.114,0-25.6,11.486-25.6,25.6v42.667h93.867V0z"/>
			<path d="M409.6,128c0-4.719-3.814-8.533-8.533-8.533c-31.36,0-59.665-13.141-79.864-34.133h-5.47v85.333H409.6V128z"/>
			<rect x="213.332" y="85.333" width="85.333" height="85.333"/>
			<rect x="102.398" y="85.333" width="93.867" height="85.333"/>
		</g>
	</g>
</g>
</svg>