<?xml version="1.0" encoding="iso-8859-1"?>
<!-- Uploaded to: SVG Repo, www.svgrepo.com, Generator: SVG Repo Mixer Tools -->
<svg fill="#FF0000" height="800px" width="800px" version="1.1" id="Layer_1" xmlns="http://www.w3.org/2000/svg" xmlns:xlink="http://www.w3.org/1999/xlink" 
	 viewBox="0 0 512.001 512.001" xml:space="preserve">
<g>
	<g>
		<path d="M441.119,487.707c-7.324-56.351-39.781-104.803-85.751-133.764c-4.445,4.678-9.115,9.018-13.996,13.007
			c5.781,51.358-34.575,95.601-85.371,95.601c-50.801,0-91.152-44.248-85.371-95.602c-4.881-3.989-9.55-8.329-13.995-13.006
			c-45.97,28.961-78.429,77.413-85.751,133.764c-1.672,12.869,8.355,24.295,21.366,24.295h327.503
			C432.806,512,442.778,500.467,441.119,487.707z"/>
	</g>
</g>
<g>
	<g>
		<path d="M256.001,398.157c-17.488,0.001-34.491-3.455-50.675-10.258c5.166,23.224,25.919,40.645,50.675,40.645
			c24.757,0,45.509-17.421,50.675-40.645C290.492,394.701,273.49,398.157,256.001,398.157z"/>
	</g>
</g>
<g>
	<g>
		<path d="M383.099,158.86c-1.104-25.27-7.857-47.624-19.017-62.943c-7.857-10.785-17.928-18.134-30.065-22.031
			c4.359-11.349,4.255-23.733-0.585-35.26C324.002,16.166,297.745,0,266.807,0c-42.267,0-75.698,30.253-69.667,64.957
			c-6.179,4.645-12.824,10.093-19.966,16.48c-52.306,46.784-41.925,114.516-35.309,140.752
			c28.889-0.665,102.516-7.716,132.974-60.336l14.779-25.532l14.684,25.588c0.314,0.542,30.732,52.324,72.426,60.38
			C380.05,209.383,384.318,186.764,383.099,158.86z"/>
	</g>
</g>
<g>
	<g>
		<path d="M377.826,256.795c-3.26-1.271-6.235-1.656-9.329-1.509c-31.934-6.862-59.221-30.17-79.265-55.618
			c-40.755,45.743-107.532,54.777-140.659,56.305c-4.28-1.102-8.487-0.949-12.434,0.28c-9.249,2.878-15.964,11.506-15.964,21.702
			c0.001,12.55,10.175,22.724,22.726,22.724c5.526,0,10.588-1.976,14.528-5.255c19.399,41.023,56.271,68.729,98.572,68.729
			c42.407,0,79.358-27.844,98.717-69.037c3.987,3.457,9.176,5.564,14.867,5.564c12.551,0,22.725-10.174,22.725-22.725
			C392.31,268.315,386.297,260.097,377.826,256.795z"/>
	</g>
</g>
</svg>